<svg xmlns="http://www.w3.org/2000/svg" viewBox="0 0 377.28 25.99"><defs><style>.cls-1{fill:#ff8e31;}</style></defs><g id="Layer_2" data-name="Layer 2"><g id="Header"><path class="cls-1" d="M40.43,2A1.88,1.88,0,1,1,38.55.09,1.88,1.88,0,0,1,40.43,2"/><path class="cls-1" d="M176,23.63a1.89,1.89,0,1,1-1.88-1.88A1.88,1.88,0,0,1,176,23.63"/><polygon class="cls-1" points="122.32 4.77 111.74 4.77 111.74 0.35 137.76 0.35 137.76 4.77 127.18 4.77 122.32 4.77"/><path class="cls-1" d="M144.51,25.67V.35h24.87V4.77h-20V21.25h20.08v4.42Zm8.39-14.73h12.85v3.73H152.9Z"/><path class="cls-1" d="M211.81.35h4.87V25.78h-4.87Zm22.42,25.43v-11h-14V10.83h14V.35h4.86V25.78Z"/><path class="cls-1" d="M341.23,25.67l-7.05-7H323.76V14.73h11.61a5.52,5.52,0,0,0,4-1.3,5.05,5.05,0,0,0,1.34-3.78A4.6,4.6,0,0,0,339.3,6a5.86,5.86,0,0,0-3.93-1.2H320.2v20.9h-4.83V.35h20a13,13,0,0,1,4.25.64,8.92,8.92,0,0,1,3.18,1.85,7.93,7.93,0,0,1,2,2.91,10.13,10.13,0,0,1,.69,3.83A9,9,0,0,1,344,14.89,8.31,8.31,0,0,1,339.74,18l8.39,7.7Z"/><path class="cls-1" d="M52.53,6.24l2.83-4.36-.3-.45a3.65,3.65,0,0,0-1-1A2.41,2.41,0,0,0,52.73,0a2.46,2.46,0,0,0-1.38.38,3.47,3.47,0,0,0-1,1l-16,24.24h5.56L52.53,6.24Z"/><polygon class="cls-1" points="76.03 7.7 76.03 25.67 80.67 25.67 80.67 11.94 76.03 7.7"/><path class="cls-1" d="M99.52,18,80.59.94a3.92,3.92,0,0,0-1-.7,2.68,2.68,0,0,0-1-.21A2.37,2.37,0,0,0,76.7.75,2.68,2.68,0,0,0,76,2.68V2.9l6.18,5.65,18,16.5a3.28,3.28,0,0,0,2.22.94,2.32,2.32,0,0,0,1.74-.7,2.7,2.7,0,0,0,.67-1.95v-.48Z"/><polygon class="cls-1" points="104.88 23.02 104.88 0.14 100.25 0.14 100.25 18.84 104.88 23.02"/><path class="cls-1" d="M27.76,12.75q-2.21-1.82-6.45-1.81H8.54A3.79,3.79,0,0,1,6,10.14a2.82,2.82,0,0,1-.94-2.27A2.88,2.88,0,0,1,6,5.59a3.8,3.8,0,0,1,2.6-.82h20V.35h-20A11.58,11.58,0,0,0,4.9.89,8,8,0,0,0,2.2,2.37,6.09,6.09,0,0,0,.56,4.62,7.15,7.15,0,0,0,0,7.45a7.13,7.13,0,0,0,.59,2.9,6.66,6.66,0,0,0,1.69,2.28A7.64,7.64,0,0,0,5,14.12a10.71,10.71,0,0,0,3.55.54h12.8a4.83,4.83,0,0,1,3,.82,2.94,2.94,0,0,1,1.06,2.46,3,3,0,0,1-1.06,2.4,4.43,4.43,0,0,1-3,.91H16.75v4.42h4.56a11.58,11.58,0,0,0,3.81-.56,7.42,7.42,0,0,0,2.7-1.55,6.37,6.37,0,0,0,1.61-2.35,7.91,7.91,0,0,0,.53-3,6.7,6.7,0,0,0-2.2-5.5"/><rect class="cls-1" x="0.42" y="21.25" width="12.76" height="4.42"/><rect class="cls-1" x="122.32" y="7.39" width="4.87" height="18.28"/><polygon class="cls-1" points="256.56 4.77 245.99 4.77 245.99 0.35 272 0.35 272 4.77 261.43 4.77 256.56 4.77"/><rect class="cls-1" x="256.56" y="7.39" width="4.87" height="18.28"/><path class="cls-1" d="M189.93,21.25a9.31,9.31,0,0,1-3.47-.63,8.34,8.34,0,0,1-2.74-1.72,7.64,7.64,0,0,1-2.24-4.11h-4.92a12.89,12.89,0,0,0,.85,3.08A12.27,12.27,0,0,0,180.25,22a13.36,13.36,0,0,0,4.29,2.72,14.36,14.36,0,0,0,5.39,1H205V21.25Z"/><path class="cls-1" d="M189.93.35a15.63,15.63,0,0,0-5.39.89,12.86,12.86,0,0,0-4.29,2.5,11.4,11.4,0,0,0-2.84,3.92,12.34,12.34,0,0,0-.92,3.57h5a7.53,7.53,0,0,1,2.27-4.16,8.27,8.27,0,0,1,2.74-1.69,9.73,9.73,0,0,1,3.47-.61H205V.35Z"/><polygon class="cls-1" points="57.51 5.12 54.66 9.48 65.25 25.67 71.12 25.67 57.51 5.12"/><path class="cls-1" d="M295.52,2.23A1.89,1.89,0,1,1,293.63.35a1.89,1.89,0,0,1,1.89,1.88"/><path class="cls-1" d="M303.92.35V14.49a9.14,9.14,0,0,1-.52,3.28A4.85,4.85,0,0,1,301.72,20a7.72,7.72,0,0,1-3.13,1.28,20.84,20.84,0,0,1-3.18.35V26a26.94,26.94,0,0,0,5.12-.66,12,12,0,0,0,4.66-2.12,8.31,8.31,0,0,0,2.64-3.61,14.12,14.12,0,0,0,.84-5.1V.35Z"/><path class="cls-1" d="M291.85,21.61a20.64,20.64,0,0,1-2.91-.34A7.67,7.67,0,0,1,285.82,20a4.87,4.87,0,0,1-1.69-2.22,9.14,9.14,0,0,1-.52-3.28V.35h-5V14.49a13.9,13.9,0,0,0,.85,5.1,8.31,8.31,0,0,0,2.64,3.61,11.9,11.9,0,0,0,4.66,2.12,26.94,26.94,0,0,0,5.11.66Z"/><path class="cls-1" d="M352.38,25.67V.35h24.87V4.77H357.2V21.25h20.08v4.42Zm8.39-14.73h12.84v3.73H360.77Z"/></g></g></svg>